<?xml version="1.0" encoding="UTF-8" standalone="no"?>
<!DOCTYPE svg PUBLIC "-//W3C//DTD SVG 1.1//EN" "http://www.w3.org/Graphics/SVG/1.1/DTD/svg11.dtd">
<svg width="100%" height="100%" viewBox="0 0 2000 2000" version="1.1" xmlns="http://www.w3.org/2000/svg" xmlns:xlink="http://www.w3.org/1999/xlink" xml:space="preserve" xmlns:serif="http://www.serif.com/" style="fill-rule:evenodd;clip-rule:evenodd;stroke-linejoin:round;stroke-miterlimit:2;">
    <g id="Favourite" transform="matrix(35.0938,6.51373e-30,-4.34249e-31,35.5332,-5895.94,-9022.03)">
        <path d="M202.899,275.693C202.899,275.693 215.438,275.693 221,275.693C221.37,275.693 221.697,275.927 221.813,276.274C221.928,276.621 221.805,277.001 221.507,277.217C217.011,280.484 206.853,287.864 206.853,287.864C206.853,287.864 210.725,299.779 212.445,305.073C212.558,305.422 212.431,305.803 212.13,306.017C211.829,306.23 211.423,306.228 211.124,306.011C206.614,302.734 196.5,295.386 196.5,295.386C196.5,295.386 186.386,302.734 181.876,306.011C181.577,306.228 181.171,306.23 180.87,306.017C180.569,305.803 180.442,305.422 180.555,305.073C182.275,299.779 186.147,287.864 186.147,287.864C186.147,287.864 175.989,280.484 171.493,277.217C171.195,277.001 171.072,276.621 171.187,276.274C171.303,275.927 171.63,275.693 172,275.693C177.562,275.693 190.101,275.693 190.101,275.693C190.101,275.693 193.962,263.81 195.686,258.505C195.8,258.156 196.129,257.919 196.5,257.919C196.871,257.919 197.2,258.156 197.314,258.505C198.657,262.64 201.344,270.909 202.899,275.693Z" style="fill:none;fill-rule:nonzero;stroke:rgb(253,204,2);stroke-width:1.42px;"/>
    </g>
</svg>
